<?xml version="1.0" encoding="utf-8"?>
<!-- Generator: Adobe Illustrator 20.1.0, SVG Export Plug-In . SVG Version: 6.00 Build 0)  -->
<svg version="1.1" id="Capa_1" xmlns="http://www.w3.org/2000/svg" xmlns:xlink="http://www.w3.org/1999/xlink" x="0px" y="0px"
	 viewBox="0 0 44.6 44.6" style="enable-background:new 0 0 44.6 44.6;" xml:space="preserve">
<style type="text/css">
	.st0{fill:#1E201D;}
</style>
<path class="st0" d="M11.7,1.7c3.1,0,5.6,1,7.6,2.9c1.3,1.2,2.3,2.6,3,4.3c0.7-1.7,1.7-3.2,3-4.3c2-1.8,4.5-2.9,7.6-2.9
	c3.2,0,6.2,1.3,8.3,3.4c2.1,2.1,3.4,5,3.4,8.3c0,5.5-6.1,12-10.4,16.6c-0.8,0.8-1.5,1.6-2.1,2.3l-8.9,10.1c-0.4,0.5-1.1,0.5-1.6,0.1
	c0,0-0.1-0.1-0.1-0.1l-8.9-10.1c-0.6-0.7-1.3-1.5-2.2-2.3C6,25.4,0,19,0,13.4c0-3.2,1.3-6.1,3.4-8.3C5.6,3.1,8.5,1.7,11.7,1.7
	L11.7,1.7z M17.8,6.2C16.3,4.8,14.2,4,11.7,4C9.1,4,6.7,5,5,6.8s-2.8,4.1-2.8,6.7c0,4.7,5.7,10.7,9.7,15.1c0.8,0.8,1.5,1.6,2.2,2.4
	l8.1,9.1l8.1-9.1c0.6-0.7,1.4-1.5,2.2-2.4c4-4.3,9.7-10.4,9.7-15.1c0-2.6-1.1-5-2.8-6.7C37.9,5,35.5,4,32.9,4
	c-2.5,0-4.6,0.8-6.1,2.3c-1.7,1.6-2.8,3.9-3.4,6.6c-0.1,0.4-0.4,0.8-0.9,0.9c-0.6,0.1-1.2-0.3-1.3-0.9C20.6,10.1,19.5,7.8,17.8,6.2
	L17.8,6.2z"/>
<path d="M32.2,6.9c0,0.3,0.3,0.6,0.6,0.6c2.6,0,4.6,2.1,4.6,4.6c0,0.3,0.3,0.6,0.6,0.6s0.6-0.3,0.6-0.6c0-3.2-2.6-5.8-5.8-5.8
	C32.5,6.3,32.2,6.6,32.2,6.9z"/>
</svg>
